/* XPM */
static char * 3_xpm[] = {
"32 32 9 1",
" 	c #4C3024",
".	c #332018",
"+	c #B2714A",
"@	c #99603F",
"#	c #E5B75B",
"$	c #000000",
"%	c #FED37F",
"&	c #FFF1E8",
"*	c #83769C",
"                                ",
"                                ",
"..++++++++++++++++++++++++++++..",
"..@@@@@@@@@@@@@@@@@@@@@@@@@@@@..",
"..@@@@@@@@@@@@@@@@@@@@@@@@@@@@..",
"..@@@......................@@@..",
"..@@@.####################.@@@..",
"..@@@.####################.@@@..",
"..@@@.##$$$$$$$$$$$$$$%%##.@@@..",
"..@@@.##$$$$$$$$$$$$$$%%##.@@@..",
"..@@@.##$$&&&&&&&&&&$$$$##.@@@..",
"..@@@.##$$&&&&&&&&&&$$$$##.@@@..",
"..@@@.##$$******&&&&&&$$##.@@@..",
"..@@@.##$$******&&&&&&$$##.@@@..",
"..@@@.##$$$$&&&&&&&&**$$##.@@@..",
"..@@@.##$$$$&&&&&&&&**$$##.@@@..",
"..@@@.##$$$$****&&&&&&$$##.@@@..",
"..@@@.##$$$$****&&&&&&$$##.@@@..",
"..@@@.##$$&&&&&&&&&&**$$##.@@@..",
"..@@@.##$$&&&&&&&&&&**$$##.@@@..",
"..@@@.##$$**********$$$$##.@@@..",
"..@@@.##$$**********$$$$##.@@@..",
"..@@@.##$$$$$$$$$$$$$$%%##.@@@..",
"..@@@.##$$$$$$$$$$$$$$%%##.@@@..",
"..@@@.####################.@@@..",
"..@@@.####################.@@@..",
"..@@@                      @@@..",
"..@@@++++++++++++++++++++++@@@..",
"..@@@++++++++++++++++++++++@@@..",
"..@@@@@@@@@@@@@@@@@@@@@@@@@@@@..",
"................................",
"................................"};
