/* XPM */
static char * Chicken0_xpm[] = {
"64 64 10 1",
" 	c #E8CFA6",
".	c #DCB98A",
"+	c #90625D",
"@	c #C58086",
"#	c #F3F2C0",
"$	c #754C60",
"%	c #D4C169",
"&	c #C49A6C",
"*	c #DDC5A3",
"=	c #D1B08A",
"        ....                            ....                    ",
"        ....                            ....                    ",
"        ....                            ....                    ",
"        ....                            ....                    ",
"        ....                            ....                    ",
"        ....                            ....                    ",
"        ....                            ....                    ",
"        ....                            ....                    ",
"        ....                            ....                    ",
"        ....                            ....                    ",
"        ....                            ....                    ",
"        ....                            ....                    ",
"........................++++++++++++............................",
"........................++++++++++++............................",
"........................++++++++++++............................",
"........................++++++++++++............................",
"                    ++++@@@@@@@@@@@@++++                ....    ",
"                    ++++@@@@@@@@@@@@++++                ....    ",
"                    ++++@@@@@@@@@@@@++++                ....    ",
"                    ++++@@@@@@@@@@@@++++                ....    ",
"                ++++####################++++            ....    ",
"                ++++####################++++            ....    ",
"                ++++####################++++            ....    ",
"                ++++####################++++            ....    ",
"            ++++############$$$$########$$$$++++        ....    ",
"            ++++############$$$$########$$$$++++        ....    ",
"            ++++############$$$$########$$$$++++        ....    ",
"            ++++############$$$$########$$$$++++        ....    ",
"............++++####################%%%%%%%%++++................",
"............++++####################%%%%%%%%++++................",
"............++++####################%%%%%%%%++++................",
"............++++####################%%%%%%%%++++................",
"        ++++################################++++                ",
"        ++++################################++++                ",
"        ++++################################++++                ",
"        ++++################################++++                ",
"    ++++####################################++++                ",
"    ++++####################################++++                ",
"    ++++####################################++++                ",
"    ++++####################################++++                ",
"    ++++    ############&&&&############    ++++                ",
"    ++++    ############&&&&############    ++++                ",
"    ++++    ############&&&&############    ++++                ",
"    ++++    ############&&&&############    ++++                ",
"....++++&&&&&&&&&&&&&&&&                    ++++................",
"....++++&&&&&&&&&&&&&&&&                    ++++................",
"....++++&&&&&&&&&&&&&&&&                    ++++................",
"....++++&&&&&&&&&&&&&&&&                    ++++................",
"    ++++%%%%%%%%++++++++++++++++++++%%%%%%%%++++        ....    ",
"    ++++%%%%%%%%++++++++++++++++++++%%%%%%%%++++        ....    ",
"    ++++%%%%%%%%++++++++++++++++++++%%%%%%%%++++        ....    ",
"    ++++%%%%%%%%++++++++++++++++++++%%%%%%%%++++        ....    ",
"********++++++++********====********++++++++********    ....    ",
"********++++++++********====********++++++++********    ....    ",
"********++++++++********====********++++++++********    ....    ",
"********++++++++********====********++++++++********    ....    ",
"    ********************====********************        ....    ",
"    ********************====********************        ....    ",
"    ********************====********************        ....    ",
"    ********************====********************        ....    ",
"................................................................",
"................................................................",
"................................................................",
"................................................................"};
