/* XPM */
static char * Exit0_xpm[] = {
"64 64 8 1",
" 	c #E8CFA6",
".	c #DCB98A",
"+	c #754C60",
"@	c #C49A6C",
"#	c #AA7959",
"$	c #6A5840",
"%	c #70634E",
"&	c #90625D",
"        ....        +++++              +++++                    ",
"        ....        +@@@+              +@@@+                    ",
"        ....        +@@@+              +@@@+                    ",
"        ....        +@@@++++++++++++++++@@@+                    ",
"        ....        +@@@@@@@@@@@@@@@@@@@@@@+                    ",
"        ....        +@@@@@@@@@@@@@@@@@@@@@@+                    ",
"        ....        +@@@@@@@@@@@@@@@@@@@@@@+                    ",
"        ....        +...++++++++++++++++...+                    ",
"        ....        +###+              +###+                    ",
"        ....        +###+              +###+                    ",
"        ....        +###++++++++++++++++###+                    ",
"        ....        +######################+                    ",
"....................+######################+....................",
"....................+######################+....................",
"....................+###++++++++++++++++###+....................",
"....................+###+..............+###+....................",
"                    +###+...           +###+            ....    ",
"                    +###++++++++++++++++###+            ....    ",
"                    +######################+            ....    ",
"                    +######################+            ....    ",
"                    +######################+            ....    ",
"                    +###++++++++++++++++###+            ....    ",
"                    +###+...           +###+            ....    ",
"                    +###+...           +###+            ....    ",
"                    +###++++++++++++++++###+            ....    ",
"                    +######################+            ....    ",
"                    +######################+            ....    ",
"                    +######################+            ....    ",
"................$$$$+###++++++++++++++++###+$$$$................",
"................$$$$+###+$$$$$$$$$$$$$$+###+$$$$................",
"................$$$$+###+$$$$$$$$$$$$$$+###+$$$$................",
"................$$$$+###++++++++++++++++###+$$$$................",
"        ....%%%%%%%%+&&&&&&&&&&&&&&&&&&&&&&+%%%%%%%%            ",
"        ....%%%%%%%%+######################+%%%%%%%%            ",
"        ....%%%%%%%%+######################+%%%%%%%%            ",
"        ....%%%%%%%%+###++++++++++++++++###+%%%%%%%%            ",
"        $$$$%%%%%%%%+###+%%%%%%%%%%%%%%+###+%%%%%%%%%%%%        ",
"        $$$$%%%%%%%%+###+%%%%%%%%%%%%%%+###+%%%%%%%%%%%%        ",
"        $$$$%%%%%%%%+###++++++++++++++++###+%%%%%%%%%%%%        ",
"        $$$$%%%%%%%%+######################+%%%%%%%%%%%%        ",
"        $$$$%%%%%%%%+######################+%%%%%%%%%%%%        ",
"        $$$$%%%%%%%%+######################+%%%%%%%%%%%%        ",
"        $$$$%%%%%%%%+###++++++++++++++++###+%%%%%%%%%%%%        ",
"        $$$$%%%%%%%%+###+%%%%%%%%%%%%%%+###+%%%%%%%%%%%%        ",
"........$$$$$$$$$$$$+###+$$$$$$$$$$$$$$+###+$$$$$$$$$$$$........",
"........$$$$$$$$$$$$+++++$$$$$$$$$$$$$$+++++$$$$$$$$$$$$........",
"........$$$$$$$$$$$$$$$$$$$$$$$$$$$$$$$$$$$$$$$$$$$$$$$$........",
"........$$$$$$$$$$$$$$$$$$$$$$$$$$$$$$$$$$$$$$$$$$$$$$$$........",
"            %%%%%%%%%%%%$$$$%%%%%%%%%%%%%%%%%%%%%%%%    ....    ",
"            %%%%%%%%%%%%$$$$%%%%%%%%%%%%%%%%%%%%%%%%    ....    ",
"            %%%%%%%%%%%%$$$$%%%%%%%%%%%%%%%%%%%%%%%%    ....    ",
"            %%%%%%%%%%%%$$$$%%%%%%%%%%%%%%%%%%%%%%%%    ....    ",
"                %%%%%%%%$$$$%%%%%%%%%%%%%%%%%%%%        ....    ",
"                %%%%%%%%$$$$%%%%%%%%%%%%%%%%%%%%        ....    ",
"                %%%%%%%%$$$$%%%%%%%%%%%%%%%%%%%%        ....    ",
"                %%%%%%%%$$$$%%%%%%%%%%%%%%%%%%%%        ....    ",
"                        ....                            ....    ",
"                        ....                            ....    ",
"                        ....                            ....    ",
"                        ....                            ....    ",
"................................................................",
"................................................................",
"................................................................",
"................................................................"};
