/* XPM */
static char * ExitC_xpm[] = {
"64 64 4 1",
" 	c #E8CFA6",
".	c #DCB98A",
"+	c #6A5840",
"@	c #70634E",
"        ....                            ....                    ",
"        ....                            ....                    ",
"        ....                            ....                    ",
"        ....                            ....                    ",
"        ....                            ....                    ",
"        ....                            ....                    ",
"        ....                            ....                    ",
"        ....                            ....                    ",
"        ....                            ....                    ",
"        ....                            ....                    ",
"        ....                            ....                    ",
"        ....                            ....                    ",
"................................................................",
"................................................................",
"................................................................",
"................................................................",
"                        ....                            ....    ",
"                        ....                            ....    ",
"                        ....                            ....    ",
"                        ....                            ....    ",
"                        ....                            ....    ",
"                        ....                            ....    ",
"                        ....                            ....    ",
"                        ....                            ....    ",
"                        ....                            ....    ",
"                        ....                            ....    ",
"                        ....                            ....    ",
"                        ....                            ....    ",
"................++++++++++++++++++++++++++++++++................",
"................++++++++++++++++++++++++++++++++................",
"................++++++++++++++++++++++++++++++++................",
"................++++++++++++++++++++++++++++++++................",
"        ....@@@@@@@@@@@@@@@@@@@@@@@@@@@@++++@@@@@@@@            ",
"        ....@@@@@@@@@@@@@@@@@@@@@@@@@@@@++++@@@@@@@@            ",
"        ....@@@@@@@@@@@@@@@@@@@@@@@@@@@@++++@@@@@@@@            ",
"        ....@@@@@@@@@@@@@@@@@@@@@@@@@@@@++++@@@@@@@@            ",
"        ++++@@@@@@@@@@@@@@@@@@@@@@@@@@@@++++@@@@@@@@@@@@        ",
"        ++++@@@@@@@@@@@@@@@@@@@@@@@@@@@@++++@@@@@@@@@@@@        ",
"        ++++@@@@@@@@@@@@@@@@@@@@@@@@@@@@++++@@@@@@@@@@@@        ",
"        ++++@@@@@@@@@@@@@@@@@@@@@@@@@@@@++++@@@@@@@@@@@@        ",
"        ++++@@@@@@@@@@@@@@@@@@@@@@@@@@@@++++@@@@@@@@@@@@        ",
"        ++++@@@@@@@@@@@@@@@@@@@@@@@@@@@@++++@@@@@@@@@@@@        ",
"        ++++@@@@@@@@@@@@@@@@@@@@@@@@@@@@++++@@@@@@@@@@@@        ",
"        ++++@@@@@@@@@@@@@@@@@@@@@@@@@@@@++++@@@@@@@@@@@@        ",
"........++++++++++++++++++++++++++++++++++++++++++++++++........",
"........++++++++++++++++++++++++++++++++++++++++++++++++........",
"........++++++++++++++++++++++++++++++++++++++++++++++++........",
"........++++++++++++++++++++++++++++++++++++++++++++++++........",
"            @@@@@@@@@@@@++++@@@@@@@@@@@@@@@@@@@@@@@@    ....    ",
"            @@@@@@@@@@@@++++@@@@@@@@@@@@@@@@@@@@@@@@    ....    ",
"            @@@@@@@@@@@@++++@@@@@@@@@@@@@@@@@@@@@@@@    ....    ",
"            @@@@@@@@@@@@++++@@@@@@@@@@@@@@@@@@@@@@@@    ....    ",
"                @@@@@@@@++++@@@@@@@@@@@@@@@@@@@@        ....    ",
"                @@@@@@@@++++@@@@@@@@@@@@@@@@@@@@        ....    ",
"                @@@@@@@@++++@@@@@@@@@@@@@@@@@@@@        ....    ",
"                @@@@@@@@++++@@@@@@@@@@@@@@@@@@@@        ....    ",
"                        ....                            ....    ",
"                        ....                            ....    ",
"                        ....                            ....    ",
"                        ....                            ....    ",
"................................................................",
"................................................................",
"................................................................",
"................................................................"};
