/* XPM */
static char * NestE_xpm[] = {
"64 64 6 1",
" 	c #E8CFA6",
".	c #DCB98A",
"+	c #957A4B",
"@	c #BFA954",
"#	c #D4C169",
"$	c #B09643",
"        ....                            ....                    ",
"        ....                            ....                    ",
"        ....                            ....                    ",
"        ....                            ....                    ",
"        ....                            ....                    ",
"        ....                            ....                    ",
"        ....                            ....                    ",
"        ....                            ....                    ",
"        ....                            ....                    ",
"        ....                            ....                    ",
"        ....                            ....                    ",
"        ....                            ....                    ",
"................................................................",
"................................................................",
"................................................................",
"................................................................",
"                        ....                            ....    ",
"                        ....                            ....    ",
"                        ....                            ....    ",
"                        ....                            ....    ",
"                        ....                            ....    ",
"                        ....                            ....    ",
"                        ....                            ....    ",
"                        ....                            ....    ",
"                        ....                            ....    ",
"                        ....                            ....    ",
"                        ....                            ....    ",
"                        ....                            ....    ",
"................++++++++++++++++++++++++++++++++................",
"................++++++++++++++++++++++++++++++++................",
"................++++++++++++++++++++++++++++++++................",
"................++++++++++++++++++++++++++++++++................",
"        ....++++@@@@########@@@@@@@@########@@@@++++            ",
"        ....++++@@@@########@@@@@@@@########@@@@++++            ",
"        ....++++@@@@########@@@@@@@@########@@@@++++            ",
"        ....++++@@@@########@@@@@@@@########@@@@++++            ",
"        ++++########++++$$$$$$$$$$$$$$$$++++########++++        ",
"        ++++########++++$$$$$$$$$$$$$$$$++++########++++        ",
"        ++++########++++$$$$$$$$$$$$$$$$++++########++++        ",
"        ++++########++++$$$$$$$$$$$$$$$$++++########++++        ",
"        ++++@@@@########++++++++++++++++########@@@@++++        ",
"        ++++@@@@########++++++++++++++++########@@@@++++        ",
"        ++++@@@@########++++++++++++++++########@@@@++++        ",
"        ++++@@@@########++++++++++++++++########@@@@++++        ",
"........++++$$$$@@@@@@@@@@@@@@@@@@@@@@@@@@@@@@@@$$$$++++........",
"........++++$$$$@@@@@@@@@@@@@@@@@@@@@@@@@@@@@@@@$$$$++++........",
"........++++$$$$@@@@@@@@@@@@@@@@@@@@@@@@@@@@@@@@$$$$++++........",
"........++++$$$$@@@@@@@@@@@@@@@@@@@@@@@@@@@@@@@@$$$$++++........",
"            ++++$$$$$$$$@@@@@@@@@@@@$$$$$$$$@@@@++++    ....    ",
"            ++++$$$$$$$$@@@@@@@@@@@@$$$$$$$$@@@@++++    ....    ",
"            ++++$$$$$$$$@@@@@@@@@@@@$$$$$$$$@@@@++++    ....    ",
"            ++++$$$$$$$$@@@@@@@@@@@@$$$$$$$$@@@@++++    ....    ",
"                ++++++++++++++++++++++++++++++++        ....    ",
"                ++++++++++++++++++++++++++++++++        ....    ",
"                ++++++++++++++++++++++++++++++++        ....    ",
"                ++++++++++++++++++++++++++++++++        ....    ",
"                        ....                            ....    ",
"                        ....                            ....    ",
"                        ....                            ....    ",
"                        ....                            ....    ",
"................................................................",
"................................................................",
"................................................................",
"................................................................"};
