/* XPM */
static char * NestF_xpm[] = {
"64 64 8 1",
" 	c #E8CFA6",
".	c #DCB98A",
"+	c #90625D",
"@	c #F3F2C0",
"#	c #957A4B",
"$	c #BFA954",
"%	c #D4C169",
"&	c #B09643",
"        ....                            ....                    ",
"        ....                            ....                    ",
"        ....                            ....                    ",
"        ....                            ....                    ",
"        ....                            ....                    ",
"        ....                            ....                    ",
"        ....                            ....                    ",
"        ....                            ....                    ",
"        ....                            ....                    ",
"        ....                            ....                    ",
"        ....                            ....                    ",
"        ....                            ....                    ",
"................................................................",
"................................................................",
"................................................................",
"................................................................",
"                        ....                            ....    ",
"                        ....                            ....    ",
"                        ....                            ....    ",
"                        ....                            ....    ",
"                        ....++++++++                    ....    ",
"                        ....++++++++                    ....    ",
"                        ....++++++++                    ....    ",
"                        ....++++++++                    ....    ",
"                        ++++@@@@@@@@++++                ....    ",
"                        ++++@@@@@@@@++++                ....    ",
"                        ++++@@@@@@@@++++                ....    ",
"                        ++++@@@@@@@@++++                ....    ",
"................####++++@@@@@@@@@@@@    ++++####................",
"................####++++@@@@@@@@@@@@    ++++####................",
"................####++++@@@@@@@@@@@@    ++++####................",
"................####++++@@@@@@@@@@@@    ++++####................",
"        ....####$$$$++++@@@@@@@@@@@@    ++++$$$$####            ",
"        ....####$$$$++++@@@@@@@@@@@@    ++++$$$$####            ",
"        ....####$$$$++++@@@@@@@@@@@@    ++++$$$$####            ",
"        ....####$$$$++++@@@@@@@@@@@@    ++++$$$$####            ",
"        ####%%%%%%%%####@@@@@@@@@@@@    ####%%%%%%%%####        ",
"        ####%%%%%%%%####@@@@@@@@@@@@    ####%%%%%%%%####        ",
"        ####%%%%%%%%####@@@@@@@@@@@@    ####%%%%%%%%####        ",
"        ####%%%%%%%%####@@@@@@@@@@@@    ####%%%%%%%%####        ",
"        ####$$$$%%%%%%%%################%%%%%%%%$$$$####        ",
"        ####$$$$%%%%%%%%################%%%%%%%%$$$$####        ",
"        ####$$$$%%%%%%%%################%%%%%%%%$$$$####        ",
"        ####$$$$%%%%%%%%################%%%%%%%%$$$$####        ",
"........####&&&&$$$$$$$$$$$$$$$$$$$$$$$$$$$$$$$$&&&&####........",
"........####&&&&$$$$$$$$$$$$$$$$$$$$$$$$$$$$$$$$&&&&####........",
"........####&&&&$$$$$$$$$$$$$$$$$$$$$$$$$$$$$$$$&&&&####........",
"........####&&&&$$$$$$$$$$$$$$$$$$$$$$$$$$$$$$$$&&&&####........",
"            ####&&&&&&&&$$$$$$$$$$$$&&&&&&&&$$$$####    ....    ",
"            ####&&&&&&&&$$$$$$$$$$$$&&&&&&&&$$$$####    ....    ",
"            ####&&&&&&&&$$$$$$$$$$$$&&&&&&&&$$$$####    ....    ",
"            ####&&&&&&&&$$$$$$$$$$$$&&&&&&&&$$$$####    ....    ",
"                ################################        ....    ",
"                ################################        ....    ",
"                ################################        ....    ",
"                ################################        ....    ",
"                        ....                            ....    ",
"                        ....                            ....    ",
"                        ....                            ....    ",
"                        ....                            ....    ",
"................................................................",
"................................................................",
"................................................................",
"................................................................"};
