/* XPM */
static char * PlayerU0_xpm[] = {
"64 64 6 1",
" 	c #E8CFA6",
".	c #DCB98A",
"+	c #5C4E92",
"@	c #F3F2C0",
"#	c #DDD5DE",
"$	c #766DAA",
"        ....++++++++++++                ++++++++++++            ",
"        ....++++++++++++                ++++++++++++            ",
"        ....++++++++++++                ++++++++++++            ",
"        ....++++++++++++                ++++++++++++            ",
"        ++++@@@@@@@@@@@@++++        ++++@@@@@@@@@@@@++++        ",
"        ++++@@@@@@@@@@@@++++        ++++@@@@@@@@@@@@++++        ",
"        ++++@@@@@@@@@@@@++++        ++++@@@@@@@@@@@@++++        ",
"        ++++@@@@@@@@@@@@++++        ++++@@@@@@@@@@@@++++        ",
"        ++++@@@@@@@@@@@@++++++++++++++++@@@@@@@@@@@@++++        ",
"        ++++@@@@@@@@@@@@++++++++++++++++@@@@@@@@@@@@++++        ",
"        ++++@@@@@@@@@@@@++++++++++++++++@@@@@@@@@@@@++++        ",
"        ++++@@@@@@@@@@@@++++++++++++++++@@@@@@@@@@@@++++        ",
"........++++@@@@@@@@@@@@################@@@@@@@@@@@@++++........",
"........++++@@@@@@@@@@@@################@@@@@@@@@@@@++++........",
"........++++@@@@@@@@@@@@################@@@@@@@@@@@@++++........",
"........++++@@@@@@@@@@@@################@@@@@@@@@@@@++++........",
"        ++++@@@@@@@@@@@@@@@@@@@@@@@@@@@@@@@@@@@@@@@@++++....    ",
"        ++++@@@@@@@@@@@@@@@@@@@@@@@@@@@@@@@@@@@@@@@@++++....    ",
"        ++++@@@@@@@@@@@@@@@@@@@@@@@@@@@@@@@@@@@@@@@@++++....    ",
"        ++++@@@@@@@@@@@@@@@@@@@@@@@@@@@@@@@@@@@@@@@@++++....    ",
"        ++++@@@@@@@@@@@@@@@@@@@@@@@@@@@@@@@@@@@@@@@@++++....    ",
"        ++++@@@@@@@@@@@@@@@@@@@@@@@@@@@@@@@@@@@@@@@@++++....    ",
"        ++++@@@@@@@@@@@@@@@@@@@@@@@@@@@@@@@@@@@@@@@@++++....    ",
"        ++++@@@@@@@@@@@@@@@@@@@@@@@@@@@@@@@@@@@@@@@@++++....    ",
"    ++++++++@@@@@@@@@@@@@@@@@@@@@@@@@@@@@@@@@@@@@@@@++++++++    ",
"    ++++++++@@@@@@@@@@@@@@@@@@@@@@@@@@@@@@@@@@@@@@@@++++++++    ",
"    ++++++++@@@@@@@@@@@@@@@@@@@@@@@@@@@@@@@@@@@@@@@@++++++++    ",
"    ++++++++@@@@@@@@@@@@@@@@@@@@@@@@@@@@@@@@@@@@@@@@++++++++    ",
"........++++@@@@@@@@@@@@@@@@@@@@@@@@@@@@@@@@@@@@@@@@++++........",
"........++++@@@@@@@@@@@@@@@@@@@@@@@@@@@@@@@@@@@@@@@@++++........",
"........++++@@@@@@@@@@@@@@@@@@@@@@@@@@@@@@@@@@@@@@@@++++........",
"........++++@@@@@@@@@@@@@@@@@@@@@@@@@@@@@@@@@@@@@@@@++++........",
"    ++++++++@@@@@@@@@@@@@@@@@@@@@@@@@@@@@@@@@@@@@@@@++++++++    ",
"    ++++++++@@@@@@@@@@@@@@@@@@@@@@@@@@@@@@@@@@@@@@@@++++++++    ",
"    ++++++++@@@@@@@@@@@@@@@@@@@@@@@@@@@@@@@@@@@@@@@@++++++++    ",
"    ++++++++@@@@@@@@@@@@@@@@@@@@@@@@@@@@@@@@@@@@@@@@++++++++    ",
"        ++++@@@@@@@@@@@@@@@@@@@@@@@@@@@@@@@@@@@@@@@@++++        ",
"        ++++@@@@@@@@@@@@@@@@@@@@@@@@@@@@@@@@@@@@@@@@++++        ",
"        ++++@@@@@@@@@@@@@@@@@@@@@@@@@@@@@@@@@@@@@@@@++++        ",
"        ++++@@@@@@@@@@@@@@@@@@@@@@@@@@@@@@@@@@@@@@@@++++        ",
"        ....++++++++$$$$$$$$$$$$$$$$$$$$$$$$++++++++            ",
"        ....++++++++$$$$$$$$$$$$$$$$$$$$$$$$++++++++            ",
"        ....++++++++$$$$$$$$$$$$$$$$$$$$$$$$++++++++            ",
"        ....++++++++$$$$$$$$$$$$$$$$$$$$$$$$++++++++            ",
"........++++####@@@@$$$$$$$$++++++++$$$$$$$$@@@@####++++........",
"........++++####@@@@$$$$$$$$++++++++$$$$$$$$@@@@####++++........",
"........++++####@@@@$$$$$$$$++++++++$$$$$$$$@@@@####++++........",
"........++++####@@@@$$$$$$$$++++++++$$$$$$$$@@@@####++++........",
"        ++++####@@@@@@@@++++@@@@@@@@++++@@@@@@@@####++++....    ",
"        ++++####@@@@@@@@++++@@@@@@@@++++@@@@@@@@####++++....    ",
"        ++++####@@@@@@@@++++@@@@@@@@++++@@@@@@@@####++++....    ",
"        ++++####@@@@@@@@++++@@@@@@@@++++@@@@@@@@####++++....    ",
"            ++++++++@@@@@@@@@@@@@@@@@@@@@@@@++++++++    ....    ",
"            ++++++++@@@@@@@@@@@@@@@@@@@@@@@@++++++++    ....    ",
"            ++++++++@@@@@@@@@@@@@@@@@@@@@@@@++++++++    ....    ",
"            ++++++++@@@@@@@@@@@@@@@@@@@@@@@@++++++++    ....    ",
"                ++++########++++++++########++++        ....    ",
"                ++++########++++++++########++++        ....    ",
"                ++++########++++++++########++++        ....    ",
"                ++++########++++++++########++++        ....    ",
"....................++++++++........++++++++....................",
"....................++++++++........++++++++....................",
"....................++++++++........++++++++....................",
"....................++++++++........++++++++...................."};
