/* XPM */
static char * PlayerR2_xpm[] = {
"64 64 9 1",
" 	c #E8CFA6",
".	c #DCB98A",
"+	c #5C4E92",
"@	c #F3F2C0",
"#	c #E8B5AC",
"$	c #F3D8C5",
"%	c #766DAA",
"&	c #DDD5DE",
"*	c #EAE178",
"        ....            ++++++++++++    ....                    ",
"        ....            ++++++++++++    ....                    ",
"        ....            ++++++++++++    ....                    ",
"        ....            ++++++++++++    ....                    ",
"        ....        ++++@@@@@@@@@@@@++++....                    ",
"        ....        ++++@@@@@@@@@@@@++++....                    ",
"        ....        ++++@@@@@@@@@@@@++++....                    ",
"        ....        ++++@@@@@@@@@@@@++++....                    ",
"        ....    ++++@@@@########@@@@++++++++                    ",
"        ....    ++++@@@@########@@@@++++++++                    ",
"        ....    ++++@@@@########@@@@++++++++                    ",
"        ....    ++++@@@@########@@@@++++++++                    ",
"................++++@@@@########@@@@@@@@@@@@++++................",
"................++++@@@@########@@@@@@@@@@@@++++................",
"................++++@@@@########@@@@@@@@@@@@++++................",
"................++++@@@@########@@@@@@@@@@@@++++................",
"                ++++@@@@@@@@@@@@@@@@@@@@@@@@++++        ....    ",
"                ++++@@@@@@@@@@@@@@@@@@@@@@@@++++        ....    ",
"                ++++@@@@@@@@@@@@@@@@@@@@@@@@++++        ....    ",
"                ++++@@@@@@@@@@@@@@@@@@@@@@@@++++        ....    ",
"                ++++@@@@@@@@@@@@@@@@@@@@@@@@++++        ....    ",
"                ++++@@@@@@@@@@@@@@@@@@@@@@@@++++        ....    ",
"                ++++@@@@@@@@@@@@@@@@@@@@@@@@++++        ....    ",
"                ++++@@@@@@@@@@@@@@@@@@@@@@@@++++        ....    ",
"            ++++++++@@@@@@@@@@@@@@@@@@@@@@@@++++++++    ....    ",
"            ++++++++@@@@@@@@@@@@@@@@@@@@@@@@++++++++    ....    ",
"            ++++++++@@@@@@@@@@@@@@@@@@@@@@@@++++++++    ....    ",
"            ++++++++@@@@@@@@@@@@@@@@@@@@@@@@++++++++    ....    ",
"................++++@@@@@@@@@@@@@@@@++++@@@@@@@@++++............",
"................++++@@@@@@@@@@@@@@@@++++@@@@@@@@++++............",
"................++++@@@@@@@@@@@@@@@@++++@@@@@@@@++++............",
"................++++@@@@@@@@@@@@@@@@++++@@@@@@@@++++............",
"        ....++++++++@@@@@@@@@@@@@@@@@@@@@@@@@@@@++++            ",
"        ....++++++++@@@@@@@@@@@@@@@@@@@@@@@@@@@@++++            ",
"        ....++++++++@@@@@@@@@@@@@@@@@@@@@@@@@@@@++++            ",
"        ....++++++++@@@@@@@@@@@@@@@@@@@@@@@@@@@@++++            ",
"        ....    ++++@@@@@@@@$$$$$$$$@@@@@@@@@@@@++++            ",
"        ....    ++++@@@@@@@@$$$$$$$$@@@@@@@@@@@@++++            ",
"        ....    ++++@@@@@@@@$$$$$$$$@@@@@@@@@@@@++++            ",
"        ....    ++++@@@@@@@@$$$$$$$$@@@@@@@@@@@@++++            ",
"        ....        ++++%%%%%%%%%%%%%%%%%%%%++++                ",
"        ....        ++++%%%%%%%%%%%%%%%%%%%%++++                ",
"        ....        ++++%%%%%%%%%%%%%%%%%%%%++++                ",
"        ....        ++++%%%%%%%%%%%%%%%%%%%%++++                ",
"................++++&&&&@@@@%%%%%%%%%%%%%%%%****................",
"................++++&&&&@@@@%%%%%%%%%%%%%%%%****................",
"................++++&&&&@@@@%%%%%%%%%%%%%%%%****................",
"................++++&&&&@@@@%%%%%%%%%%%%%%%%****................",
"                ++++&&&&@@@@@@@@@@@@@@@@++++****        ....    ",
"                ++++&&&&@@@@@@@@@@@@@@@@++++****        ....    ",
"                ++++&&&&@@@@@@@@@@@@@@@@++++****        ....    ",
"                ++++&&&&@@@@@@@@@@@@@@@@++++****        ....    ",
"                    ++++++++@@@@@@@@@@@@@@@@++++        ....    ",
"                    ++++++++@@@@@@@@@@@@@@@@++++        ....    ",
"                    ++++++++@@@@@@@@@@@@@@@@++++        ....    ",
"                    ++++++++@@@@@@@@@@@@@@@@++++        ....    ",
"                    ++++++++++++++++&&&&&&&&++++        ....    ",
"                    ++++++++++++++++&&&&&&&&++++        ....    ",
"                    ++++++++++++++++&&&&&&&&++++        ....    ",
"                    ++++++++++++++++&&&&&&&&++++        ....    ",
"........................++++++++....++++++++....................",
"........................++++++++....++++++++....................",
"........................++++++++....++++++++....................",
"........................++++++++....++++++++...................."};
