/* XPM */
static char * TileRM_xpm[] = {
"64 64 3 1",
" 	c #754C60",
".	c #C49A6C",
"+	c #000000",
"    ............    ++++++++++++++++++++++++++++++++++++++++++++",
"    ............    ++++++++++++++++++++++++++++++++++++++++++++",
"    ............    ++++++++++++++++++++++++++++++++++++++++++++",
"    ............    ++++++++++++++++++++++++++++++++++++++++++++",
"    ............    ++++++++++++++++++++++++++++++++++++++++++++",
"    ............    ++++++++++++++++++++++++++++++++++++++++++++",
"    ............    ++++++++++++++++++++++++++++++++++++++++++++",
"    ............    ++++++++++++++++++++++++++++++++++++++++++++",
"    ............    ++++++++++++++++++++++++++++++++++++++++++++",
"    ............    ++++++++++++++++++++++++++++++++++++++++++++",
"    ............    ++++++++++++++++++++++++++++++++++++++++++++",
"    ............    ++++++++++++++++++++++++++++++++++++++++++++",
"    ............    ++++++++++++++++++++++++++++++++++++++++++++",
"    ............    ++++++++++++++++++++++++++++++++++++++++++++",
"    ............    ++++++++++++++++++++++++++++++++++++++++++++",
"    ............    ++++++++++++++++++++++++++++++++++++++++++++",
"    ............    ++++++++++++++++++++++++++++++++++++++++++++",
"    ............    ++++++++++++++++++++++++++++++++++++++++++++",
"    ............    ++++++++++++++++++++++++++++++++++++++++++++",
"    ............    ++++++++++++++++++++++++++++++++++++++++++++",
"    ............    ++++++++++++++++++++++++++++++++++++++++++++",
"    ............    ++++++++++++++++++++++++++++++++++++++++++++",
"    ............    ++++++++++++++++++++++++++++++++++++++++++++",
"    ............    ++++++++++++++++++++++++++++++++++++++++++++",
"    ............    ++++++++++++++++++++++++++++++++++++++++++++",
"    ............    ++++++++++++++++++++++++++++++++++++++++++++",
"    ............    ++++++++++++++++++++++++++++++++++++++++++++",
"    ............    ++++++++++++++++++++++++++++++++++++++++++++",
"    ............    ++++++++++++++++++++++++++++++++++++++++++++",
"    ............    ++++++++++++++++++++++++++++++++++++++++++++",
"    ............    ++++++++++++++++++++++++++++++++++++++++++++",
"    ............    ++++++++++++++++++++++++++++++++++++++++++++",
"    ............    ++++++++++++++++++++++++++++++++++++++++++++",
"    ............    ++++++++++++++++++++++++++++++++++++++++++++",
"    ............    ++++++++++++++++++++++++++++++++++++++++++++",
"    ............    ++++++++++++++++++++++++++++++++++++++++++++",
"    ............    ++++++++++++++++++++++++++++++++++++++++++++",
"    ............    ++++++++++++++++++++++++++++++++++++++++++++",
"    ............    ++++++++++++++++++++++++++++++++++++++++++++",
"    ............    ++++++++++++++++++++++++++++++++++++++++++++",
"    ............    ++++++++++++++++++++++++++++++++++++++++++++",
"    ............    ++++++++++++++++++++++++++++++++++++++++++++",
"    ............    ++++++++++++++++++++++++++++++++++++++++++++",
"    ............    ++++++++++++++++++++++++++++++++++++++++++++",
"    ............    ++++++++++++++++++++++++++++++++++++++++++++",
"    ............    ++++++++++++++++++++++++++++++++++++++++++++",
"    ............    ++++++++++++++++++++++++++++++++++++++++++++",
"    ............    ++++++++++++++++++++++++++++++++++++++++++++",
"    ............    ++++++++++++++++++++++++++++++++++++++++++++",
"    ............    ++++++++++++++++++++++++++++++++++++++++++++",
"    ............    ++++++++++++++++++++++++++++++++++++++++++++",
"    ............    ++++++++++++++++++++++++++++++++++++++++++++",
"    ............    ++++++++++++++++++++++++++++++++++++++++++++",
"    ............    ++++++++++++++++++++++++++++++++++++++++++++",
"    ............    ++++++++++++++++++++++++++++++++++++++++++++",
"    ............    ++++++++++++++++++++++++++++++++++++++++++++",
"    ............    ++++++++++++++++++++++++++++++++++++++++++++",
"    ............    ++++++++++++++++++++++++++++++++++++++++++++",
"    ............    ++++++++++++++++++++++++++++++++++++++++++++",
"    ............    ++++++++++++++++++++++++++++++++++++++++++++",
"    ............    ++++++++++++++++++++++++++++++++++++++++++++",
"    ............    ++++++++++++++++++++++++++++++++++++++++++++",
"    ............    ++++++++++++++++++++++++++++++++++++++++++++",
"    ............    ++++++++++++++++++++++++++++++++++++++++++++"};
