/* XPM */
static char * TileLB_xpm[] = {
"64 64 6 1",
" 	c #000000",
".	c #754C60",
"+	c #C49A6C",
"@	c #90625D",
"#	c #DCB98A",
"$	c #AA7959",
"                                            ....++++++++++++....",
"                                            ....++++++++++++....",
"                                            ....++++++++++++....",
"                                            ....++++++++++++....",
"                                            ....++++++++++++++++",
"                                            ....++++++++++++++++",
"                                            ....++++++++++++++++",
"                                            ....++++++++++++++++",
"                                            ....++++++++++++++++",
"                                            ....++++++++++++++++",
"                                            ....++++++++++++++++",
"                                            ....++++++++++++++++",
"                                            ....++++++++++++++++",
"                                            ....++++++++++++++++",
"                                            ....++++++++++++++++",
"                                            ....++++++++++++++++",
"                                            ....@@@@############",
"                                            ....@@@@############",
"                                            ....@@@@############",
"                                            ....@@@@############",
"                                            ....$$$$$$$$$$$$$$$$",
"                                            ....$$$$$$$$$$$$$$$$",
"                                            ....$$$$$$$$$$$$$$$$",
"                                            ....$$$$$$$$$$$$$$$$",
"                                            ....$$$$$$$$$$$$$$$$",
"                                            ....$$$$$$$$$$$$$$$$",
"                                            ....$$$$$$$$$$$$$$$$",
"                                            ....$$$$$$$$$$$$$$$$",
"                                            ....@@@@@@@@@@@@@@@@",
"                                            ....@@@@@@@@@@@@@@@@",
"                                            ....@@@@@@@@@@@@@@@@",
"                                            ....@@@@@@@@@@@@@@@@",
"                                            ....$$$$$$$$$$$$$$$$",
"                                            ....$$$$$$$$$$$$$$$$",
"                                            ....$$$$$$$$$$$$$$$$",
"                                            ....$$$$$$$$$$$$$$$$",
"                                            ....$$$$$$$$$$$$$$$$",
"                                            ....$$$$$$$$$$$$$$$$",
"                                            ....$$$$$$$$$$$$$$$$",
"                                            ....$$$$$$$$$$$$$$$$",
"                                            ....$$$$$$$$$$$$$$$$",
"                                            ....$$$$$$$$$$$$$$$$",
"                                            ....$$$$$$$$$$$$$$$$",
"                                            ....$$$$$$$$$$$$$$$$",
"                                            ....@@@@@@@@@@@@@@@@",
"                                            ....@@@@@@@@@@@@@@@@",
"                                            ....@@@@@@@@@@@@@@@@",
"                                            ....@@@@@@@@@@@@@@@@",
"                                            ....$$$$$$$$$$$$$$$$",
"                                            ....$$$$$$$$$$$$$$$$",
"                                            ....$$$$$$$$$$$$$$$$",
"                                            ....$$$$$$$$$$$$$$$$",
"                                            ....$$$$$$$$$$$$$$$$",
"                                            ....$$$$$$$$$$$$$$$$",
"                                            ....$$$$$$$$$$$$$$$$",
"                                            ....$$$$$$$$$$$$$$$$",
"                                            ....$$$$$$$$$$$$$$$$",
"                                            ....$$$$$$$$$$$$$$$$",
"                                            ....$$$$$$$$$$$$$$$$",
"                                            ....$$$$$$$$$$$$$$$$",
"                                            ....................",
"                                            ....................",
"                                            ....................",
"                                            ...................."};
