/* XPM */
static char * TileRB_xpm[] = {
"64 64 6 1",
" 	c #754C60",
".	c #C49A6C",
"+	c #000000",
"@	c #DCB98A",
"#	c #90625D",
"$	c #AA7959",
"    ............    ++++++++++++++++++++++++++++++++++++++++++++",
"    ............    ++++++++++++++++++++++++++++++++++++++++++++",
"    ............    ++++++++++++++++++++++++++++++++++++++++++++",
"    ............    ++++++++++++++++++++++++++++++++++++++++++++",
"................    ++++++++++++++++++++++++++++++++++++++++++++",
"................    ++++++++++++++++++++++++++++++++++++++++++++",
"................    ++++++++++++++++++++++++++++++++++++++++++++",
"................    ++++++++++++++++++++++++++++++++++++++++++++",
"................    ++++++++++++++++++++++++++++++++++++++++++++",
"................    ++++++++++++++++++++++++++++++++++++++++++++",
"................    ++++++++++++++++++++++++++++++++++++++++++++",
"................    ++++++++++++++++++++++++++++++++++++++++++++",
"................    ++++++++++++++++++++++++++++++++++++++++++++",
"................    ++++++++++++++++++++++++++++++++++++++++++++",
"................    ++++++++++++++++++++++++++++++++++++++++++++",
"................    ++++++++++++++++++++++++++++++++++++++++++++",
"@@@@@@@@@@@@####    ++++++++++++++++++++++++++++++++++++++++++++",
"@@@@@@@@@@@@####    ++++++++++++++++++++++++++++++++++++++++++++",
"@@@@@@@@@@@@####    ++++++++++++++++++++++++++++++++++++++++++++",
"@@@@@@@@@@@@####    ++++++++++++++++++++++++++++++++++++++++++++",
"$$$$$$$$$$$$$$$$    ++++++++++++++++++++++++++++++++++++++++++++",
"$$$$$$$$$$$$$$$$    ++++++++++++++++++++++++++++++++++++++++++++",
"$$$$$$$$$$$$$$$$    ++++++++++++++++++++++++++++++++++++++++++++",
"$$$$$$$$$$$$$$$$    ++++++++++++++++++++++++++++++++++++++++++++",
"$$$$$$$$$$$$$$$$    ++++++++++++++++++++++++++++++++++++++++++++",
"$$$$$$$$$$$$$$$$    ++++++++++++++++++++++++++++++++++++++++++++",
"$$$$$$$$$$$$$$$$    ++++++++++++++++++++++++++++++++++++++++++++",
"$$$$$$$$$$$$$$$$    ++++++++++++++++++++++++++++++++++++++++++++",
"################    ++++++++++++++++++++++++++++++++++++++++++++",
"################    ++++++++++++++++++++++++++++++++++++++++++++",
"################    ++++++++++++++++++++++++++++++++++++++++++++",
"################    ++++++++++++++++++++++++++++++++++++++++++++",
"$$$$$$$$$$$$$$$$    ++++++++++++++++++++++++++++++++++++++++++++",
"$$$$$$$$$$$$$$$$    ++++++++++++++++++++++++++++++++++++++++++++",
"$$$$$$$$$$$$$$$$    ++++++++++++++++++++++++++++++++++++++++++++",
"$$$$$$$$$$$$$$$$    ++++++++++++++++++++++++++++++++++++++++++++",
"$$$$$$$$$$$$$$$$    ++++++++++++++++++++++++++++++++++++++++++++",
"$$$$$$$$$$$$$$$$    ++++++++++++++++++++++++++++++++++++++++++++",
"$$$$$$$$$$$$$$$$    ++++++++++++++++++++++++++++++++++++++++++++",
"$$$$$$$$$$$$$$$$    ++++++++++++++++++++++++++++++++++++++++++++",
"$$$$$$$$$$$$$$$$    ++++++++++++++++++++++++++++++++++++++++++++",
"$$$$$$$$$$$$$$$$    ++++++++++++++++++++++++++++++++++++++++++++",
"$$$$$$$$$$$$$$$$    ++++++++++++++++++++++++++++++++++++++++++++",
"$$$$$$$$$$$$$$$$    ++++++++++++++++++++++++++++++++++++++++++++",
"################    ++++++++++++++++++++++++++++++++++++++++++++",
"################    ++++++++++++++++++++++++++++++++++++++++++++",
"################    ++++++++++++++++++++++++++++++++++++++++++++",
"################    ++++++++++++++++++++++++++++++++++++++++++++",
"$$$$$$$$$$$$$$$$    ++++++++++++++++++++++++++++++++++++++++++++",
"$$$$$$$$$$$$$$$$    ++++++++++++++++++++++++++++++++++++++++++++",
"$$$$$$$$$$$$$$$$    ++++++++++++++++++++++++++++++++++++++++++++",
"$$$$$$$$$$$$$$$$    ++++++++++++++++++++++++++++++++++++++++++++",
"$$$$$$$$$$$$$$$$    ++++++++++++++++++++++++++++++++++++++++++++",
"$$$$$$$$$$$$$$$$    ++++++++++++++++++++++++++++++++++++++++++++",
"$$$$$$$$$$$$$$$$    ++++++++++++++++++++++++++++++++++++++++++++",
"$$$$$$$$$$$$$$$$    ++++++++++++++++++++++++++++++++++++++++++++",
"$$$$$$$$$$$$$$$$    ++++++++++++++++++++++++++++++++++++++++++++",
"$$$$$$$$$$$$$$$$    ++++++++++++++++++++++++++++++++++++++++++++",
"$$$$$$$$$$$$$$$$    ++++++++++++++++++++++++++++++++++++++++++++",
"$$$$$$$$$$$$$$$$    ++++++++++++++++++++++++++++++++++++++++++++",
"                    ++++++++++++++++++++++++++++++++++++++++++++",
"                    ++++++++++++++++++++++++++++++++++++++++++++",
"                    ++++++++++++++++++++++++++++++++++++++++++++",
"                    ++++++++++++++++++++++++++++++++++++++++++++"};
