/* XPM */
static char * TileRU_xpm[] = {
"64 64 3 1",
" 	c #754C60",
".	c #000000",
"+	c #C49A6C",
"                ................................................",
"                ................................................",
"                ................................................",
"                ................................................",
"++++++++++++++++    ............................................",
"++++++++++++++++    ............................................",
"++++++++++++++++    ............................................",
"++++++++++++++++    ............................................",
"++++++++++++++++    ............................................",
"++++++++++++++++    ............................................",
"++++++++++++++++    ............................................",
"++++++++++++++++    ............................................",
"++++++++++++++++    ............................................",
"++++++++++++++++    ............................................",
"++++++++++++++++    ............................................",
"++++++++++++++++    ............................................",
"    ++++++++++++    ............................................",
"    ++++++++++++    ............................................",
"    ++++++++++++    ............................................",
"    ++++++++++++    ............................................",
"    ++++++++++++    ............................................",
"    ++++++++++++    ............................................",
"    ++++++++++++    ............................................",
"    ++++++++++++    ............................................",
"    ++++++++++++    ............................................",
"    ++++++++++++    ............................................",
"    ++++++++++++    ............................................",
"    ++++++++++++    ............................................",
"    ++++++++++++    ............................................",
"    ++++++++++++    ............................................",
"    ++++++++++++    ............................................",
"    ++++++++++++    ............................................",
"    ++++++++++++    ............................................",
"    ++++++++++++    ............................................",
"    ++++++++++++    ............................................",
"    ++++++++++++    ............................................",
"    ++++++++++++    ............................................",
"    ++++++++++++    ............................................",
"    ++++++++++++    ............................................",
"    ++++++++++++    ............................................",
"    ++++++++++++    ............................................",
"    ++++++++++++    ............................................",
"    ++++++++++++    ............................................",
"    ++++++++++++    ............................................",
"    ++++++++++++    ............................................",
"    ++++++++++++    ............................................",
"    ++++++++++++    ............................................",
"    ++++++++++++    ............................................",
"    ++++++++++++    ............................................",
"    ++++++++++++    ............................................",
"    ++++++++++++    ............................................",
"    ++++++++++++    ............................................",
"    ++++++++++++    ............................................",
"    ++++++++++++    ............................................",
"    ++++++++++++    ............................................",
"    ++++++++++++    ............................................",
"    ++++++++++++    ............................................",
"    ++++++++++++    ............................................",
"    ++++++++++++    ............................................",
"    ++++++++++++    ............................................",
"    ++++++++++++    ............................................",
"    ++++++++++++    ............................................",
"    ++++++++++++    ............................................",
"    ++++++++++++    ............................................"};
