/* XPM */
static char * TileLU_xpm[] = {
"64 64 3 1",
" 	c #000000",
".	c #754C60",
"+	c #C49A6C",
"                                                ................",
"                                                ................",
"                                                ................",
"                                                ................",
"                                            ....++++++++++++++++",
"                                            ....++++++++++++++++",
"                                            ....++++++++++++++++",
"                                            ....++++++++++++++++",
"                                            ....++++++++++++++++",
"                                            ....++++++++++++++++",
"                                            ....++++++++++++++++",
"                                            ....++++++++++++++++",
"                                            ....++++++++++++++++",
"                                            ....++++++++++++++++",
"                                            ....++++++++++++++++",
"                                            ....++++++++++++++++",
"                                            ....++++++++++++....",
"                                            ....++++++++++++....",
"                                            ....++++++++++++....",
"                                            ....++++++++++++....",
"                                            ....++++++++++++....",
"                                            ....++++++++++++....",
"                                            ....++++++++++++....",
"                                            ....++++++++++++....",
"                                            ....++++++++++++....",
"                                            ....++++++++++++....",
"                                            ....++++++++++++....",
"                                            ....++++++++++++....",
"                                            ....++++++++++++....",
"                                            ....++++++++++++....",
"                                            ....++++++++++++....",
"                                            ....++++++++++++....",
"                                            ....++++++++++++....",
"                                            ....++++++++++++....",
"                                            ....++++++++++++....",
"                                            ....++++++++++++....",
"                                            ....++++++++++++....",
"                                            ....++++++++++++....",
"                                            ....++++++++++++....",
"                                            ....++++++++++++....",
"                                            ....++++++++++++....",
"                                            ....++++++++++++....",
"                                            ....++++++++++++....",
"                                            ....++++++++++++....",
"                                            ....++++++++++++....",
"                                            ....++++++++++++....",
"                                            ....++++++++++++....",
"                                            ....++++++++++++....",
"                                            ....++++++++++++....",
"                                            ....++++++++++++....",
"                                            ....++++++++++++....",
"                                            ....++++++++++++....",
"                                            ....++++++++++++....",
"                                            ....++++++++++++....",
"                                            ....++++++++++++....",
"                                            ....++++++++++++....",
"                                            ....++++++++++++....",
"                                            ....++++++++++++....",
"                                            ....++++++++++++....",
"                                            ....++++++++++++....",
"                                            ....++++++++++++....",
"                                            ....++++++++++++....",
"                                            ....++++++++++++....",
"                                            ....++++++++++++...."};
