/* XPM */
static char * Wall_xpm[] = {
"64 64 5 1",
" 	c #E8CFA6",
".	c #DCB98A",
"+	c #90625D",
"@	c #C49A6C",
"#	c #AA7959",
"        ....                            ....                    ",
"        ....                            ....                    ",
"        ....                            ....                    ",
"        ....                            ....                    ",
"        ++++++++++++++++++++++++++++++++++++++++++++++++        ",
"        ++++++++++++++++++++++++++++++++++++++++++++++++        ",
"        ++++++++++++++++++++++++++++++++++++++++++++++++        ",
"        ++++++++++++++++++++++++++++++++++++++++++++++++        ",
"    ++++@@@@@@@@@@@@@@@@@@@@@@@@@@@@@@@@@@@@@@@@@@@@@@@@++++    ",
"    ++++@@@@@@@@@@@@@@@@@@@@@@@@@@@@@@@@@@@@@@@@@@@@@@@@++++    ",
"    ++++@@@@@@@@@@@@@@@@@@@@@@@@@@@@@@@@@@@@@@@@@@@@@@@@++++    ",
"    ++++@@@@@@@@@@@@@@@@@@@@@@@@@@@@@@@@@@@@@@@@@@@@@@@@++++    ",
"....++++@@@@@@@@@@@@@@@@@@@@@@@@@@@@@@@@@@@@@@@@@@@@@@@@++++....",
"....++++@@@@@@@@@@@@@@@@@@@@@@@@@@@@@@@@@@@@@@@@@@@@@@@@++++....",
"....++++@@@@@@@@@@@@@@@@@@@@@@@@@@@@@@@@@@@@@@@@@@@@@@@@++++....",
"....++++@@@@@@@@@@@@@@@@@@@@@@@@@@@@@@@@@@@@@@@@@@@@@@@@++++....",
"    ++++@@@@@@@@@@@@@@@@@@@@@@@@@@@@@@@@@@@@@@@@@@@@@@@@++++    ",
"    ++++@@@@@@@@@@@@@@@@@@@@@@@@@@@@@@@@@@@@@@@@@@@@@@@@++++    ",
"    ++++@@@@@@@@@@@@@@@@@@@@@@@@@@@@@@@@@@@@@@@@@@@@@@@@++++    ",
"    ++++@@@@@@@@@@@@@@@@@@@@@@@@@@@@@@@@@@@@@@@@@@@@@@@@++++    ",
"    ++++@@@@@@@@@@@@@@@@@@@@@@@@@@@@@@@@@@@@@@@@@@@@@@@@++++    ",
"    ++++@@@@@@@@@@@@@@@@@@@@@@@@@@@@@@@@@@@@@@@@@@@@@@@@++++    ",
"    ++++@@@@@@@@@@@@@@@@@@@@@@@@@@@@@@@@@@@@@@@@@@@@@@@@++++    ",
"    ++++@@@@@@@@@@@@@@@@@@@@@@@@@@@@@@@@@@@@@@@@@@@@@@@@++++    ",
"    ++++@@@@@@@@@@@@@@@@@@@@@@@@@@@@@@@@@@@@@@@@@@@@@@@@++++    ",
"    ++++@@@@@@@@@@@@@@@@@@@@@@@@@@@@@@@@@@@@@@@@@@@@@@@@++++    ",
"    ++++@@@@@@@@@@@@@@@@@@@@@@@@@@@@@@@@@@@@@@@@@@@@@@@@++++    ",
"    ++++@@@@@@@@@@@@@@@@@@@@@@@@@@@@@@@@@@@@@@@@@@@@@@@@++++    ",
"....++++@@@@@@@@@@@@@@@@@@@@@@@@@@@@@@@@@@@@@@@@@@@@@@@@++++....",
"....++++@@@@@@@@@@@@@@@@@@@@@@@@@@@@@@@@@@@@@@@@@@@@@@@@++++....",
"....++++@@@@@@@@@@@@@@@@@@@@@@@@@@@@@@@@@@@@@@@@@@@@@@@@++++....",
"....++++@@@@@@@@@@@@@@@@@@@@@@@@@@@@@@@@@@@@@@@@@@@@@@@@++++....",
"    ++++@@@@@@@@@@@@@@@@@@@@@@@@@@@@@@@@@@@@@@@@@@@@@@@@++++    ",
"    ++++@@@@@@@@@@@@@@@@@@@@@@@@@@@@@@@@@@@@@@@@@@@@@@@@++++    ",
"    ++++@@@@@@@@@@@@@@@@@@@@@@@@@@@@@@@@@@@@@@@@@@@@@@@@++++    ",
"    ++++@@@@@@@@@@@@@@@@@@@@@@@@@@@@@@@@@@@@@@@@@@@@@@@@++++    ",
"    ++++@@@@@@@@@@@@@@@@@@@@@@@@@@@@@@@@@@@@@@@@@@@@@@@@++++    ",
"    ++++@@@@@@@@@@@@@@@@@@@@@@@@@@@@@@@@@@@@@@@@@@@@@@@@++++    ",
"    ++++@@@@@@@@@@@@@@@@@@@@@@@@@@@@@@@@@@@@@@@@@@@@@@@@++++    ",
"    ++++@@@@@@@@@@@@@@@@@@@@@@@@@@@@@@@@@@@@@@@@@@@@@@@@++++    ",
"    ++++@@@@@@@@@@@@@@@@@@@@@@@@@@@@@@@@@@@@@@@@@@@@@@@@++++    ",
"    ++++@@@@@@@@@@@@@@@@@@@@@@@@@@@@@@@@@@@@@@@@@@@@@@@@++++    ",
"    ++++@@@@@@@@@@@@@@@@@@@@@@@@@@@@@@@@@@@@@@@@@@@@@@@@++++    ",
"    ++++@@@@@@@@@@@@@@@@@@@@@@@@@@@@@@@@@@@@@@@@@@@@@@@@++++    ",
"....++++................................................++++....",
"....++++................................................++++....",
"....++++................................................++++....",
"....++++................................................++++....",
"    ++++################################################++++    ",
"    ++++################################################++++    ",
"    ++++################################################++++    ",
"    ++++################################################++++    ",
"    ++++####++++++++++++++++++++++++++++++++++++++++####++++    ",
"    ++++####++++++++++++++++++++++++++++++++++++++++####++++    ",
"    ++++####++++++++++++++++++++++++++++++++++++++++####++++    ",
"    ++++####++++++++++++++++++++++++++++++++++++++++####++++    ",
"    ++++++++            ....                        ++++++++    ",
"    ++++++++            ....                        ++++++++    ",
"    ++++++++            ....                        ++++++++    ",
"    ++++++++            ....                        ++++++++    ",
"................................................................",
"................................................................",
"................................................................",
"................................................................"};
